<svg width="14" height="14" viewBox="0 0 14 14" fill="none" xmlns="http://www.w3.org/2000/svg">
<g clip-path="url(#clip0_1_1636)">
<path d="M7.34191 1.50846C7.12317 1.28965 6.82648 1.16669 6.51708 1.16663H2.33341C2.024 1.16663 1.72725 1.28954 1.50846 1.50833C1.28966 1.72713 1.16675 2.02387 1.16675 2.33329V6.51696C1.16681 6.82635 1.28977 7.12305 1.50858 7.34179L6.58591 12.4191C6.85105 12.6826 7.20964 12.8305 7.58341 12.8305C7.95719 12.8305 8.31578 12.6826 8.58091 12.4191L12.4192 8.58079C12.6827 8.31566 12.8306 7.95707 12.8306 7.58329C12.8306 7.20952 12.6827 6.85093 12.4192 6.58579L7.34191 1.50846Z" stroke="white" stroke-width="1.16667" stroke-linecap="round" stroke-linejoin="round"/>
<path d="M4.37492 4.66671C4.536 4.66671 4.66659 4.53612 4.66659 4.37504C4.66659 4.21396 4.536 4.08337 4.37492 4.08337C4.21384 4.08337 4.08325 4.21396 4.08325 4.37504C4.08325 4.53612 4.21384 4.66671 4.37492 4.66671Z" fill="white" stroke="white" stroke-width="1.16667" stroke-linecap="round" stroke-linejoin="round"/>
</g>
<defs>
<clipPath id="clip0_1_1636">
<rect width="14" height="14" fill="white"/>
</clipPath>
</defs>
</svg>
